<svg aria-hidden="true" style="position: absolute; width: 0; height: 0; overflow: hidden;" version="1.1" xmlns="http://www.w3.org/2000/svg" xmlns:xlink="http://www.w3.org/1999/xlink">
<defs>
<symbol id="icon-icon-2" viewBox="0 0 32 32">
<path fill="#ffa155" style="fill: var(--color1, #ffa155)" d="M8.846 9.476h-1.146c-0.025 0-0.048 0.023-0.048 0.048v3.2c0 0.025 0.023 0.048 0.048 0.048h1.146v-3.295zM22.312 8.044h1.146c0.816 0 1.48 0.665 1.48 1.48v3.2c0 0.816-0.665 1.48-1.48 1.48h-1.98c-0.59 0.937-1.423 1.756-2.318 2.402 0 1.149 0.832 2.087 2.006 2.087 3.427 0 6.208 0.903 6.208 5.062 0 0.396-0.321 0.716-0.716 0.716s-0.716-0.321-0.716-0.716c0-3.336-2.211-3.629-4.775-3.629-0.569 0-1.106-0.139-1.579-0.385l-3.826 2.77c-0.244 0.185-0.59 0.198-0.851 0.009l-3.644-2.639c-0.394 0.158-0.824 0.245-1.274 0.245-2.564 0-4.775 0.294-4.775 3.629 0 0.396-0.321 0.716-0.716 0.716s-0.716-0.321-0.716-0.716c0-4.158 2.782-5.062 6.208-5.062 1.054 0 1.923-0.822 2-1.857-1.021-0.671-1.976-1.571-2.591-2.632h-1.701c-0.816 0-1.48-0.665-1.48-1.48v-3.2c0-0.816 0.665-1.48 1.48-1.48h1.146v-1.022c0-3.444 2.782-6.284 6.219-6.284h1.029c3.436 0 6.219 2.841 6.219 6.285v1.022zM20.88 12.772v-4.644c-1.944 0.25-3.899-0.299-5.423-1.521-1.415 1.132-3.252 1.732-5.178 1.548v4.526c0.311 0.995 1.067 1.872 1.938 2.556 1.187 0.932 2.536 1.483 3.275 1.483 0.749 0 2.266-0.698 3.539-1.837 0.238-0.213 0.464-0.44 0.674-0.68h-2.214c-0.218 0.29-0.564 0.477-0.955 0.477-0.659 0-1.194-0.535-1.194-1.194s0.534-1.194 1.194-1.194c0.391 0 0.737 0.188 0.955 0.478 0.95-0 2.534 0 3.391 0zM23.458 9.476h-1.146v3.295h1.146c0.025 0 0.048-0.023 0.048-0.048v-3.2c0-0.025-0.023-0.048-0.048-0.048zM20.868 6.687c-0.125-1.842-1.274-3.418-2.885-4.123-0.255 1.148-0.779 2.178-1.495 3.034 1.248 0.938 2.827 1.334 4.38 1.088zM16.6 2.197c-0.166-0.018-0.335-0.027-0.506-0.027h-1.029c-2.555 0-4.622 2.030-4.777 4.55 2.963 0.345 5.698-1.634 6.312-4.522zM12.515 19.019l2.815 2.038 3.123-2.261c-0.307-0.395-0.531-0.858-0.643-1.363-0.904 0.463-1.753 0.72-2.319 0.72-0.559 0-1.343-0.207-2.175-0.586-0.146 0.549-0.425 1.046-0.8 1.451z"></path>
<path fill="none" stroke="#444cfc" style="stroke: var(--color2, #444cfc)" stroke-linejoin="miter" stroke-linecap="round" stroke-miterlimit="4" stroke-width="1.7778" d="M4.889 26.692c5.228 4.128 12.383 6.879 21.464 0"></path>
</symbol>
<symbol id="icon-icon-1" viewBox="0 0 32 32">
<path fill="#ffa155" style="fill: var(--color1, #ffa155)" d="M4.029 0.060h25.276c1.486 0 2.695 1.209 2.695 2.695v25.156c0 1.486-1.209 2.695-2.695 2.695h-25.276c-1.486 0-2.695-1.209-2.695-2.695v-25.156c0-1.486 1.209-2.695 2.695-2.695zM29.305 1.857h-25.276c-0.495 0-0.898 0.403-0.898 0.898v4.492h27.073v-4.492c0-0.495-0.403-0.898-0.898-0.898zM4.029 28.81h25.276c0.495 0 0.898-0.403 0.898-0.898v-18.867h-27.073v18.867c0 0.495 0.403 0.898 0.898 0.898z"></path>
<path fill="#444cfc" style="fill: var(--color2, #444cfc)" d="M13.617 11.812c0.456-0.195 0.984 0.016 1.18 0.472l5.391 12.578c0.196 0.456-0.016 0.984-0.472 1.18s-0.984-0.016-1.18-0.472l-5.391-12.578c-0.195-0.456 0.016-0.984 0.472-1.18z"></path>
<path fill="#444cfc" style="fill: var(--color2, #444cfc)" d="M21.356 14.772c0.31-0.387 0.875-0.45 1.263-0.14l4.492 3.594c0.449 0.359 0.449 1.044 0 1.403l-4.492 3.594c-0.387 0.31-0.953 0.247-1.263-0.14s-0.247-0.953 0.14-1.263l3.615-2.892-3.615-2.892c-0.387-0.31-0.45-0.875-0.14-1.263z"></path>
<path fill="#444cfc" style="fill: var(--color2, #444cfc)" d="M6.223 18.225l4.492-3.594c0.387-0.31 0.953-0.247 1.263 0.14s0.247 0.953-0.14 1.263l-3.615 2.892 3.615 2.892c0.388 0.31 0.45 0.875 0.14 1.263s-0.876 0.45-1.263 0.14l-4.492-3.594c-0.449-0.359-0.449-1.044 0-1.403z"></path>
<path fill="#ffa155" style="fill: var(--color1, #ffa155)" d="M27.448 5.451c-0.496 0-0.898-0.402-0.898-0.898s0.402-0.898 0.898-0.898c0.496 0 0.899 0.402 0.899 0.898s-0.402 0.898-0.899 0.898z"></path>
<path fill="#ffa155" style="fill: var(--color1, #ffa155)" d="M23.854 5.451c-0.496 0-0.898-0.402-0.898-0.898s0.402-0.898 0.898-0.898c0.496 0 0.899 0.402 0.899 0.898s-0.402 0.898-0.899 0.898z"></path>
<path fill="#ffa155" style="fill: var(--color1, #ffa155)" d="M20.26 5.451c-0.496 0-0.898-0.402-0.898-0.898s0.402-0.898 0.898-0.898c0.496 0 0.898 0.402 0.898 0.898s-0.402 0.898-0.898 0.898z"></path>
<path fill="#ffa155" style="fill: var(--color1, #ffa155)" d="M11.276 5.451h-5.391c-0.496 0-0.898-0.402-0.898-0.898s0.402-0.898 0.898-0.898h5.391c0.496 0 0.898 0.402 0.898 0.898s-0.402 0.898-0.898 0.898z"></path>
</symbol>
<symbol id="icon-icon" viewBox="0 0 32 32">
<path fill="#ffa155" style="fill: var(--color1, #ffa155)" d="M16 0c-7.754 0-14.063 6.308-14.063 14.063 0 0.859 0 7.507 0 7.625 0 1.551 1.262 2.813 2.813 2.813h1.099c0.387 1.091 1.429 1.875 2.651 1.875 1.551 0 2.813-1.262 2.813-2.812v-7.625c0-1.551-1.262-2.812-2.813-2.812-1.222 0-2.264 0.784-2.651 1.875h-1.099c-0.329 0-0.644 0.057-0.938 0.161v-1.099c0-6.72 5.467-12.188 12.188-12.188s12.187 5.467 12.187 12.188v1.099c-0.293-0.104-0.609-0.161-0.937-0.161h-1.099c-0.387-1.091-1.429-1.875-2.651-1.875-1.551 0-2.813 1.262-2.813 2.812v7.625c0 1.551 1.262 2.812 2.813 2.812 0.284 0 0.558-0.043 0.816-0.121-0.351 1.154-1.424 1.996-2.691 1.996h-2.974c-0.387-1.091-1.429-1.875-2.651-1.875-1.551 0-2.813 1.262-2.813 2.813s1.262 2.813 2.813 2.813c1.222 0 2.264-0.784 2.651-1.875h2.974c2.585 0 4.687-2.103 4.687-4.688v-0.937h0.937c1.551 0 2.813-1.262 2.813-2.813 0-0.117 0-6.766 0-7.625 0-7.754-6.309-14.063-14.063-14.063zM7.563 15.937c0-0.517 0.421-0.937 0.938-0.937s0.938 0.421 0.938 0.937v7.625c0 0.517-0.421 0.937-0.938 0.937s-0.938-0.421-0.938-0.937v-7.625zM4.75 16.875h0.938v5.75h-0.938c-0.517 0-0.938-0.421-0.938-0.938v-3.875c0-0.517 0.421-0.938 0.938-0.938zM16 30.125c-0.517 0-0.937-0.421-0.937-0.938s0.421-0.937 0.937-0.937c0.517 0 0.937 0.421 0.937 0.937s-0.421 0.938-0.937 0.938zM24.437 23.563c0 0.517-0.421 0.937-0.937 0.937s-0.937-0.421-0.937-0.937v-7.625c0-0.517 0.421-0.937 0.937-0.937s0.937 0.421 0.937 0.937v7.625zM28.187 21.687c0 0.517-0.421 0.938-0.937 0.938h-0.937v-5.75h0.937c0.517 0 0.937 0.421 0.937 0.938v3.875z"></path>
<path fill="none" stroke="#454dfd" style="stroke: var(--color3, #454dfd)" stroke-linejoin="miter" stroke-linecap="butt" stroke-miterlimit="4" stroke-width="2" d="M10.667 8c2.872-3.143 6.974-3.592 10.667-0.898"></path>
</symbol>
<symbol id="icon-icon-3" viewBox="0 0 32 32">
<path fill="#ffa155" style="fill: var(--color1, #ffa155)" d="M30.305 19.472c0 0 0 0 0 0l-0.698-0.403c-2.308-1.332-2.313-4.803 0-6.139l0.698-0.403c0.895-0.517 1.203-1.666 0.686-2.561l-2.271-3.933c-0.517-0.895-1.666-1.203-2.561-0.686l-0.695 0.401c-2.292 1.323-5.319-0.378-5.319-3.064v-0.809c0-1.034-0.841-1.875-1.875-1.875h-4.542c-1.034 0-1.875 0.841-1.875 1.875v0.809c0 2.687-3.028 4.387-5.319 3.064l-0.695-0.401c-0.897-0.518-2.043-0.211-2.561 0.686l-2.271 3.933c-0.517 0.895-0.209 2.044 0.686 2.561l0.698 0.403c2.308 1.332 2.314 4.803 0 6.139l-0.698 0.403c-0.895 0.517-1.203 1.666-0.686 2.561l2.271 3.933c0.517 0.895 1.666 1.203 2.561 0.686l0.695-0.401c2.293-1.324 5.319 0.381 5.319 3.064v0.809c0 1.034 0.841 1.875 1.875 1.875h4.542c1.034 0 1.875-0.841 1.875-1.875v-0.809c0-2.687 3.027-4.387 5.319-3.064l0.695 0.401c0.895 0.517 2.044 0.209 2.561-0.686l2.271-3.933c0.518-0.897 0.211-2.043-0.686-2.561zM27.097 25.029l-0.695-0.401c-3.535-2.041-8.132 0.551-8.132 4.688v0.809h-4.542v-0.809c0-4.142-4.601-6.727-8.132-4.688l-0.695 0.401-2.271-3.933 0.698-0.403c1.652-0.954 2.675-2.743 2.67-4.671v-0.046c0.004-1.927-1.019-3.716-2.67-4.669l-0.698-0.403 2.271-3.933 0.695 0.401c3.535 2.041 8.132-0.551 8.132-4.688v-0.809h4.542v0.809c0 4.098 4.563 6.748 8.132 4.688l0.695-0.401 2.271 3.933-0.698 0.403c-3.563 2.057-3.558 7.332 0 9.386l0.698 0.403-2.271 3.933z"></path>
<path fill="#444cfc" style="fill: var(--color2, #444cfc)" d="M16 7.961c-4.433 0-8.039 3.606-8.039 8.039s3.606 8.039 8.039 8.039c4.433 0 8.039-3.606 8.039-8.039s-3.606-8.039-8.039-8.039zM16 22.164c-3.399 0-6.164-2.765-6.164-6.164s2.765-6.164 6.164-6.164c3.399 0 6.164 2.765 6.164 6.164s-2.765 6.164-6.164 6.164z"></path>
<path fill="#444cfc" style="fill: var(--color2, #444cfc)" d="M18.165 13.82l-3.174 2.356-1.032-1.099c-0.354-0.378-0.948-0.397-1.325-0.042s-0.396 0.948-0.042 1.325l1.604 1.709c0.326 0.347 0.86 0.395 1.242 0.111l3.845-2.854c0.416-0.309 0.503-0.896 0.194-1.312s-0.896-0.502-1.311-0.194z"></path>
</symbol>
<symbol id="icon-icon-4" viewBox="0 0 32 32">
<path fill="#ffa155" style="fill: var(--color1, #ffa155)" d="M31.962 2.389c-0.069-1.271-1.080-2.282-2.351-2.351-2.565-0.14-7.584-0.004-12.383 2.478-2.447 1.265-5.034 3.411-7.099 5.887-0.025 0.030-0.050 0.061-0.075 0.092l-4.686 0.362c-0.771 0.060-1.458 0.464-1.885 1.109l-3.197 4.836c-0.324 0.489-0.375 1.102-0.138 1.638s0.725 0.91 1.305 1l3.948 0.612c-0.014 0.077-0.028 0.153-0.041 0.23-0.131 0.786 0.129 1.595 0.697 2.162l5.5 5.5c0.471 0.471 1.107 0.73 1.759 0.73 0.134 0 0.269-0.011 0.404-0.033 0.077-0.013 0.153-0.027 0.23-0.041l0.612 3.948c0.090 0.58 0.464 1.067 1 1.305 0.223 0.099 0.459 0.147 0.695 0.147 0.33 0 0.658-0.096 0.944-0.285l4.836-3.197c0.645-0.427 1.049-1.114 1.109-1.885l0.362-4.686c0.031-0.025 0.061-0.050 0.092-0.075 2.476-2.065 4.621-4.653 5.887-7.099 2.482-4.8 2.619-9.819 2.479-12.383zM21 26.954l-4.626 3.058-0.596-3.848c1.955-0.575 3.889-1.495 5.731-2.729l-0.236 3.053c-0.015 0.19-0.115 0.36-0.274 0.465zM12.881 24.618l-5.5-5.499c-0.14-0.14-0.205-0.338-0.173-0.528 0.163-0.978 0.418-1.908 0.732-2.785l8.252 8.252c-1.053 0.377-1.996 0.602-2.783 0.734-0.19 0.032-0.387-0.033-0.527-0.173zM5.511 10.726l3.053-0.236c-1.233 1.842-2.154 3.776-2.729 5.731l-3.848-0.596 3.058-4.626c0.105-0.159 0.275-0.259 0.465-0.274zM22.396 20.431c-1.515 1.263-2.985 2.177-4.34 2.838l-9.326-9.326c0.866-1.769 1.923-3.242 2.839-4.339 1.911-2.291 4.288-4.267 6.521-5.422 4.405-2.278 9.045-2.401 11.42-2.272 0.314 0.017 0.564 0.267 0.581 0.581 0.129 2.374 0.007 7.015-2.272 11.42-1.155 2.233-3.131 4.61-5.422 6.521z"></path>
<path fill="#444cfc" style="fill: var(--color2, #444cfc)" d="M21.92 14.765c1.2-0 2.401-0.457 3.315-1.371 0.885-0.885 1.373-2.062 1.373-3.314s-0.487-2.429-1.373-3.314c-1.828-1.828-4.801-1.828-6.629 0-0.885 0.885-1.373 2.062-1.373 3.314s0.488 2.429 1.373 3.314c0.914 0.914 2.114 1.371 3.314 1.371zM19.931 8.091c0.548-0.548 1.268-0.822 1.989-0.822s1.44 0.274 1.989 0.822c0.531 0.531 0.824 1.237 0.824 1.989s-0.292 1.457-0.824 1.989c-1.097 1.097-2.881 1.097-3.977 0-0.531-0.531-0.824-1.237-0.824-1.989s0.293-1.457 0.824-1.989z"></path>
<path fill="#ffa155" style="fill: var(--color1, #ffa155)" d="M0.956 26.371c0.24 0 0.48-0.091 0.663-0.275l3.061-3.061c0.366-0.366 0.366-0.96 0-1.326s-0.96-0.366-1.326 0l-3.061 3.061c-0.366 0.366-0.366 0.96 0 1.326 0.183 0.183 0.423 0.275 0.663 0.275z"></path>
<path fill="#ffa155" style="fill: var(--color1, #ffa155)" d="M7.485 24.515c-0.366-0.366-0.96-0.366-1.326 0l-5.885 5.885c-0.366 0.366-0.366 0.96 0 1.326 0.183 0.183 0.423 0.275 0.663 0.275s0.48-0.091 0.663-0.275l5.885-5.885c0.366-0.366 0.366-0.96 0-1.326z"></path>
<path fill="#ffa155" style="fill: var(--color1, #ffa155)" d="M8.964 27.32l-3.061 3.061c-0.366 0.366-0.366 0.96 0 1.326 0.183 0.183 0.423 0.275 0.663 0.275s0.48-0.091 0.663-0.275l3.061-3.061c0.366-0.366 0.366-0.96 0-1.326s-0.96-0.366-1.326 0z"></path>
</symbol>
<symbol id="icon-facebook" viewBox="0 0 32 32">
<path d="M29 0h-26c-1.65 0-3 1.35-3 3v26c0 1.65 1.35 3 3 3h13v-14h-4v-4h4v-2c0-3.306 2.694-6 6-6h4v4h-4c-1.1 0-2 0.9-2 2v2h6l-1 4h-5v14h9c1.65 0 3-1.35 3-3v-26c0-1.65-1.35-3-3-3z"></path>
</symbol>
<symbol id="icon-telegram" viewBox="0 0 32 32">
<path d="M16 0c-8.838 0-16 7.162-16 16s7.162 16 16 16 16-7.163 16-16-7.163-16-16-16zM23.863 10.969l-2.625 12.369c-0.181 0.881-0.712 1.087-1.45 0.681l-4-2.956-1.919 1.869c-0.225 0.219-0.4 0.4-0.8 0.4-0.519 0-0.431-0.194-0.606-0.688l-1.363-4.475-3.956-1.231c-0.856-0.262-0.862-0.85 0.194-1.269l15.412-5.95c0.7-0.319 1.381 0.169 1.113 1.25z"></path>
</symbol>
<symbol id="icon-twitter" viewBox="0 0 32 32">
<path d="M32 7.075c-1.175 0.525-2.444 0.875-3.769 1.031 1.356-0.813 2.394-2.1 2.887-3.631-1.269 0.75-2.675 1.3-4.169 1.594-1.2-1.275-2.906-2.069-4.794-2.069-3.625 0-6.563 2.938-6.563 6.563 0 0.512 0.056 1.012 0.169 1.494-5.456-0.275-10.294-2.888-13.531-6.862-0.563 0.969-0.887 2.1-0.887 3.3 0 2.275 1.156 4.287 2.919 5.463-1.075-0.031-2.087-0.331-2.975-0.819 0 0.025 0 0.056 0 0.081 0 3.181 2.263 5.838 5.269 6.437-0.55 0.15-1.131 0.231-1.731 0.231-0.425 0-0.831-0.044-1.237-0.119 0.838 2.606 3.263 4.506 6.131 4.563-2.25 1.762-5.075 2.813-8.156 2.813-0.531 0-1.050-0.031-1.569-0.094 2.913 1.869 6.362 2.95 10.069 2.95 12.075 0 18.681-10.006 18.681-18.681 0-0.287-0.006-0.569-0.019-0.85 1.281-0.919 2.394-2.075 3.275-3.394z"></path>
</symbol>
<symbol id="icon-linkedin" viewBox="0 0 32 32">
<path d="M29 0h-26c-1.65 0-3 1.35-3 3v26c0 1.65 1.35 3 3 3h26c1.65 0 3-1.35 3-3v-26c0-1.65-1.35-3-3-3zM12 26h-4v-14h4v14zM10 10c-1.106 0-2-0.894-2-2s0.894-2 2-2c1.106 0 2 0.894 2 2s-0.894 2-2 2zM26 26h-4v-8c0-1.106-0.894-2-2-2s-2 0.894-2 2v8h-4v-14h4v2.481c0.825-1.131 2.087-2.481 3.5-2.481 2.488 0 4.5 2.238 4.5 5v9z"></path>
</symbol>
<symbol id="icon-menu" viewBox="0 0 32 32">
<path d="M2 6h28v6h-28zM2 14h28v6h-28zM2 22h28v6h-28z"></path>
</symbol>
<symbol id="icon-cross" viewBox="0 0 32 32">
<path d="M31.708 25.708c-0-0-0-0-0-0l-9.708-9.708 9.708-9.708c0-0 0-0 0-0 0.105-0.105 0.18-0.227 0.229-0.357 0.133-0.356 0.057-0.771-0.229-1.057l-4.586-4.586c-0.286-0.286-0.702-0.361-1.057-0.229-0.13 0.048-0.252 0.124-0.357 0.228 0 0-0 0-0 0l-9.708 9.708-9.708-9.708c-0-0-0-0-0-0-0.105-0.104-0.227-0.18-0.357-0.228-0.356-0.133-0.771-0.057-1.057 0.229l-4.586 4.586c-0.286 0.286-0.361 0.702-0.229 1.057 0.049 0.13 0.124 0.252 0.229 0.357 0 0 0 0 0 0l9.708 9.708-9.708 9.708c-0 0-0 0-0 0-0.104 0.105-0.18 0.227-0.229 0.357-0.133 0.355-0.057 0.771 0.229 1.057l4.586 4.586c0.286 0.286 0.702 0.361 1.057 0.229 0.13-0.049 0.252-0.124 0.357-0.229 0-0 0-0 0-0l9.708-9.708 9.708 9.708c0 0 0 0 0 0 0.105 0.105 0.227 0.18 0.357 0.229 0.356 0.133 0.771 0.057 1.057-0.229l4.586-4.586c0.286-0.286 0.362-0.702 0.229-1.057-0.049-0.13-0.124-0.252-0.229-0.357z"></path>
</symbol>
</defs>
</svg>
